<svg width="82" height="81" viewBox="0 0 82 81" fill="none" xmlns="http://www.w3.org/2000/svg">
<path d="M34.1477 2.77077C37.7317 -0.923589 43.6601 -0.923589 47.2442 2.77077C49.4738 5.07012 52.7472 6.03109 55.8667 5.30238C60.8777 4.13238 65.8655 7.33754 66.883 12.3819C67.5159 15.5232 69.75 18.1012 72.7679 19.174C77.6177 20.8985 80.0796 26.2927 78.2085 31.0859C77.0429 34.0704 77.5277 37.4469 79.4874 39.9814C82.6345 44.0546 81.7911 49.9221 77.6235 52.9443C75.0295 54.8242 73.6127 57.9263 73.89 61.1183C74.3356 66.2454 70.4525 70.7266 65.3138 71.0154C62.1159 71.194 59.2461 73.039 57.7538 75.874C55.3572 80.4277 49.6684 82.0985 45.1887 79.5625C42.4016 77.9846 38.9903 77.9846 36.2032 79.5625C31.7235 82.0985 26.0346 80.4277 23.638 75.874C22.1458 73.039 19.2759 71.194 16.078 71.0154C10.9393 70.7266 7.05626 66.2454 7.5019 61.1183C7.77916 57.9263 6.36239 54.8242 3.76835 52.9443C-0.399226 49.9221 -1.24261 44.0546 1.90448 39.9814C3.86416 37.4469 4.349 34.0704 3.18336 31.0859C1.31223 26.2927 3.77416 20.8985 8.624 19.174C11.6419 18.1012 13.8759 15.5232 14.5088 12.3819C15.5264 7.33754 20.5142 4.13238 25.5251 5.30238C28.6446 6.03109 31.918 5.07012 34.1477 2.77077Z" fill="black"/>
</svg>
